<svg width="64" height="77" viewBox="0 0 64 77" fill="none" xmlns="http://www.w3.org/2000/svg">
<path d="M0 56.5C0 60.02 1.56 63.18 4 65.38V72.5C4 74.7 5.8 76.5 8 76.5H12C14.2 76.5 16 74.7 16 72.5V68.5H48V72.5C48 74.7 49.8 76.5 52 76.5H56C58.2 76.5 60 74.7 60 72.5V65.38C62.44 63.18 64 60.02 64 56.5V16.5C64 2.5 49.68 0.5 32 0.5C14.32 0.5 0 2.5 0 16.5V56.5ZM14 60.5C10.68 60.5 8 57.82 8 54.5C8 51.18 10.68 48.5 14 48.5C17.32 48.5 20 51.18 20 54.5C20 57.82 17.32 60.5 14 60.5ZM50 60.5C46.68 60.5 44 57.82 44 54.5C44 51.18 46.68 48.5 50 48.5C53.32 48.5 56 51.18 56 54.5C56 57.82 53.32 60.5 50 60.5ZM56 36.5H8V16.5H56V36.5Z" fill="black"/>
</svg>
