<svg width="173" height="158" viewBox="0 0 173 158" fill="none" xmlns="http://www.w3.org/2000/svg">
<g filter="url(#filter0_f_180_330)">
<ellipse cx="88.598" cy="144.826" rx="74.5" ry="5" fill="black" fill-opacity="0.1"/>
</g>
<path d="M131.725 10.8704C109.296 4.86062 86.2957 18.1401 80.2859 40.5689C77.5838 50.6531 77.9504 60.8764 80.9415 70.809C84.0558 81.2094 89.2504 90.8007 92.4227 101.217C93.9819 106.293 94.8653 110.878 95.6939 116.131C96.3466 119.723 96.0884 125.555 100.667 126.781C105.245 128.008 107.938 122.829 110.241 120.029C113.643 115.909 116.643 112.365 120.531 108.748C128.471 101.372 137.765 95.6629 145.678 88.155C153.293 81.0642 158.722 72.3939 161.424 62.3097C167.433 39.8809 154.154 16.8802 131.725 10.8704Z" fill="#2463A4" fill-opacity="0.5"/>
<path d="M82.3785 70.3787L82.3778 70.3764C79.461 60.6909 79.1102 50.7524 81.7348 40.9571C87.5302 19.3285 109.708 6.52392 131.337 12.3193C152.966 18.1147 165.77 40.2929 159.975 61.9215C157.35 71.7163 152.078 80.1455 144.656 87.0573L144.656 87.0572L144.645 87.0669C140.756 90.7574 136.516 94.0156 132.204 97.3088L131.829 97.5952C127.658 100.78 123.425 104.012 119.51 107.649L119.51 107.65C115.543 111.339 112.49 114.95 109.084 119.074L109.082 119.076C108.662 119.587 108.216 120.19 107.779 120.782C107.59 121.038 107.402 121.292 107.219 121.535C106.582 122.381 105.943 123.177 105.261 123.84C103.907 125.157 102.612 125.75 101.055 125.333C99.4977 124.915 98.6722 123.755 98.1504 121.931C97.8879 121.013 97.7271 120.001 97.5899 118.945C97.5546 118.673 97.5203 118.393 97.4858 118.11C97.3926 117.349 97.2972 116.569 97.1729 115.881C96.3402 110.603 95.4439 105.944 93.8568 100.777C92.2659 95.554 90.1779 90.5459 88.1248 85.6215L88.0449 85.4298C85.956 80.4195 83.9097 75.4922 82.3785 70.3787Z" stroke="#15416D" stroke-opacity="0.5" stroke-width="3"/>
<path d="M115.974 59.8602L117.653 52.3591L119.314 52.8042C119.958 52.9768 120.543 53.0093 121.069 52.9017C121.621 52.801 122.08 52.5791 122.448 52.236C122.849 51.874 123.129 51.3968 123.287 50.8044C123.439 50.2377 123.442 49.7138 123.294 49.2326C123.154 48.7257 122.88 48.3071 122.471 47.9768C122.07 47.6208 121.56 47.3599 120.942 47.1943C119.989 46.9389 119.037 46.9876 118.087 47.3403C117.169 47.6742 116.338 48.2521 115.593 49.074L112.759 44.5048C113.939 43.1921 115.387 42.2689 117.104 41.735C118.828 41.1753 120.694 41.1647 122.703 41.703C124.377 42.1516 125.765 42.8962 126.867 43.9368C127.968 44.9773 128.718 46.1996 129.114 47.6034C129.518 48.9816 129.52 50.4176 129.12 51.9116C128.712 53.4313 128.055 54.6493 127.147 55.5654C126.239 56.4816 125.163 57.146 123.921 57.5585C122.685 57.9452 121.36 58.1008 119.945 58.0252L122.294 56.2115L120.611 61.1025L115.974 59.8602ZM115.539 70.7588C114.508 70.4827 113.752 69.9072 113.268 69.0323C112.811 68.1643 112.713 67.2409 112.975 66.2621C113.251 65.2318 113.801 64.468 114.624 63.9709C115.481 63.4549 116.424 63.3349 117.454 63.611C118.459 63.8801 119.19 64.4487 119.647 65.3167C120.138 66.1659 120.245 67.1056 119.969 68.136C119.706 69.1148 119.147 69.8622 118.291 70.3782C117.461 70.9011 116.543 71.028 115.539 70.7588Z" fill="#F6F6F6"/>
<path d="M27.5875 87.2534L27.5858 87.2518C20.217 80.3223 14.9439 71.8907 12.3193 62.0955C6.52392 40.4669 19.3285 18.2886 40.9571 12.4933C62.5857 6.69792 84.7639 19.5025 90.5593 41.1311C93.1838 50.926 92.8326 60.862 89.8604 70.5589L89.8604 70.5589L89.8564 70.5724C88.3332 75.7132 86.2908 80.6546 84.2029 85.6628L84.0213 86.0984C82.0014 90.9422 79.9518 95.8571 78.3798 100.965L78.3796 100.966C76.7891 106.144 75.9505 110.797 75.063 116.072L75.0626 116.075C74.954 116.727 74.8696 117.473 74.7867 118.204C74.7509 118.52 74.7154 118.834 74.6783 119.136C74.5496 120.187 74.3939 121.196 74.1352 122.111C73.6211 123.929 72.7963 125.089 71.2389 125.507C69.6815 125.924 68.3863 125.332 67.0224 124.013C66.3362 123.349 65.6907 122.553 65.0441 121.707C64.8776 121.489 64.7078 121.264 64.5365 121.036C64.0752 120.424 63.6026 119.796 63.1509 119.262C59.7909 115.108 56.6854 111.522 52.7271 107.84C48.7379 104.112 44.4256 100.819 40.1854 97.5809L40.0203 97.4549C35.7062 94.1602 31.4703 90.9163 27.5875 87.2534Z" fill="#2463A4" stroke="#15416D" stroke-width="3"/>
<circle cx="38.6835" cy="50.3725" r="3.75" transform="rotate(-15 38.6835 50.3725)" fill="#F6F6F6"/>
<circle cx="64.039" cy="43.5785" r="3.75" transform="rotate(-15 64.039 43.5785)" fill="#F6F6F6"/>
<path d="M43.0509 66.6718C48.6777 58.6936 61.5175 55.9012 68.4065 59.8782" stroke="#F6F6F6" stroke-width="4" stroke-linecap="round"/>
<defs>
<filter id="filter0_f_180_330" x="6.09802" y="131.826" width="165" height="26" filterUnits="userSpaceOnUse" color-interpolation-filters="sRGB">
<feFlood flood-opacity="0" result="BackgroundImageFix"/>
<feBlend mode="normal" in="SourceGraphic" in2="BackgroundImageFix" result="shape"/>
<feGaussianBlur stdDeviation="4" result="effect1_foregroundBlur_180_330"/>
</filter>
</defs>
</svg>
