<svg width="161" height="48" viewBox="0 0 161 48" fill="none" xmlns="http://www.w3.org/2000/svg">
<path d="M0.352 47V1.816H10.4V47H0.352ZM16.222 41.24L31.838 21.592H43.742L28.126 41.24H16.222ZM16.222 47V41.24L23.198 38.808H43.358V47H16.222ZM17.374 24.088V15.896H43.742V21.592L36.83 24.088H17.374ZM49.0185 47V15.896H58.8105V47H49.0185ZM53.9465 11.608C52.4105 11.608 51.1305 11.096 50.1065 10.072C49.1252 9.00533 48.6345 7.72533 48.6345 6.232C48.6345 4.696 49.1252 3.416 50.1065 2.392C51.1305 1.368 52.4105 0.855999 53.9465 0.855999C55.4825 0.855999 56.7412 1.368 57.7225 2.392C58.7038 3.416 59.1945 4.696 59.1945 6.232C59.1945 7.72533 58.7038 9.00533 57.7225 10.072C56.7412 11.096 55.4825 11.608 53.9465 11.608Z" fill="#2463A4"/>
<path d="M71.53 47V41.752H84.97C87.53 41.752 89.5353 41.0053 90.986 39.512C92.4367 37.976 93.162 36.1413 93.162 34.008C93.162 32.5573 92.842 31.256 92.202 30.104C91.562 28.9093 90.6233 27.9707 89.386 27.288C88.1913 26.6053 86.7833 26.264 85.162 26.264H71.53V21.016H84.266C86.3993 21.016 88.0847 20.4613 89.322 19.352C90.602 18.2 91.242 16.5573 91.242 14.424C91.242 12.2907 90.5807 10.6693 89.258 9.56C87.9353 8.408 86.186 7.832 84.01 7.832H71.53V2.584H84.138C87.0393 2.584 89.45 3.11733 91.37 4.184C93.3327 5.208 94.8047 6.57333 95.786 8.28C96.81 9.98667 97.322 11.864 97.322 13.912C97.322 16.3013 96.6607 18.392 95.338 20.184C94.058 21.976 92.1593 23.384 89.642 24.408L90.154 22.488C93.0127 23.512 95.2313 25.0693 96.81 27.16C98.4313 29.208 99.242 31.64 99.242 34.456C99.242 36.8027 98.666 38.9147 97.514 40.792C96.362 42.6693 94.698 44.184 92.522 45.336C90.3887 46.4453 87.7647 47 84.65 47H71.53ZM67.498 47V2.584H73.514V47H67.498ZM118.573 47.64C116.098 47.64 113.858 47.0853 111.853 45.976C109.89 44.824 108.354 43.2453 107.245 41.24C106.136 39.2347 105.581 36.9093 105.581 34.264V16.6H111.341V34.008C111.341 35.672 111.618 37.1227 112.173 38.36C112.77 39.5547 113.624 40.472 114.733 41.112C115.842 41.752 117.144 42.072 118.637 42.072C120.898 42.072 122.669 41.368 123.949 39.96C125.229 38.5093 125.869 36.5253 125.869 34.008V16.6H131.629V34.264C131.629 36.9093 131.074 39.2347 129.965 41.24C128.856 43.2453 127.32 44.824 125.357 45.976C123.437 47.0853 121.176 47.64 118.573 47.64ZM149.013 47.64C147.306 47.64 145.685 47.4267 144.149 47C142.656 46.5307 141.269 45.8907 139.989 45.08C138.709 44.2267 137.6 43.224 136.661 42.072L140.373 38.36C141.482 39.7253 142.762 40.7493 144.213 41.432C145.664 42.072 147.285 42.392 149.077 42.392C150.869 42.392 152.256 42.0933 153.237 41.496C154.218 40.856 154.709 39.9813 154.709 38.872C154.709 37.7627 154.304 36.9093 153.493 36.312C152.725 35.672 151.722 35.16 150.485 34.776C149.248 34.3493 147.925 33.944 146.517 33.56C145.152 33.1333 143.85 32.6 142.613 31.96C141.376 31.32 140.352 30.4453 139.541 29.336C138.773 28.2267 138.389 26.7547 138.389 24.92C138.389 23.0853 138.837 21.5067 139.733 20.184C140.629 18.8187 141.866 17.7733 143.445 17.048C145.066 16.3227 147.008 15.96 149.269 15.96C151.658 15.96 153.77 16.3867 155.605 17.24C157.482 18.0507 159.018 19.288 160.213 20.952L156.501 24.664C155.648 23.5547 154.581 22.7013 153.301 22.104C152.064 21.5067 150.656 21.208 149.077 21.208C147.413 21.208 146.133 21.5067 145.237 22.104C144.384 22.6587 143.957 23.448 143.957 24.472C143.957 25.496 144.341 26.2853 145.109 26.84C145.877 27.3947 146.88 27.864 148.117 28.248C149.397 28.632 150.72 29.0373 152.085 29.464C153.45 29.848 154.752 30.3813 155.989 31.064C157.226 31.7467 158.229 32.664 158.997 33.816C159.808 34.968 160.213 36.4827 160.213 38.36C160.213 41.2187 159.189 43.48 157.141 45.144C155.136 46.808 152.426 47.64 149.013 47.64Z" fill="black"/>
</svg>
